<?xml version="1.0" encoding="UTF-8"?>
<svg width="1200px" height="1200px" viewBox="0 0 1200 1200" version="1.1" xmlns="http://www.w3.org/2000/svg" xmlns:xlink="http://www.w3.org/1999/xlink">
    <!-- Generator: Sketch 63.1 (92452) - https://sketch.com -->
    <title>Artboard</title>
    <desc>Created with Sketch.</desc>
    <g id="Artboard" stroke="none" stroke-width="1" fill="none" fill-rule="evenodd">
        <g id="wait">
            <rect id="Rectangle" fill="#FFFFFF" fill-rule="nonzero" x="0" y="0" width="1200" height="1200"></rect>
            <g id="Group" transform="translate(96.000000, 96.000000)">
                <g transform="translate(384.000000, 0.000000)" fill="#000000" fill-rule="nonzero" id="Rectangle">
                    <g>
                        <rect x="0" y="0" width="48" height="48"></rect>
                    </g>
                </g>
                <g transform="translate(480.000000, 0.000000)" fill="#000000" fill-rule="nonzero" id="Rectangle">
                    <g>
                        <rect x="0" y="0" width="48" height="48"></rect>
                    </g>
                </g>
                <g transform="translate(528.000000, 0.000000)" fill="#000000" fill-rule="nonzero" id="Rectangle">
                    <g>
                        <rect x="0" y="0" width="48" height="48"></rect>
                    </g>
                </g>
                <g transform="translate(576.000000, 0.000000)" fill="#000000" fill-rule="nonzero" id="Rectangle">
                    <g>
                        <rect x="0" y="0" width="48" height="48"></rect>
                    </g>
                </g>
                <g transform="translate(384.000000, 48.000000)" fill="#000000" fill-rule="nonzero" id="Rectangle">
                    <g>
                        <rect x="0" y="0" width="48" height="48"></rect>
                    </g>
                </g>
                <g transform="translate(480.000000, 48.000000)" fill="#000000" fill-rule="nonzero" id="Rectangle">
                    <g>
                        <rect x="0" y="0" width="48" height="48"></rect>
                    </g>
                </g>
                <g transform="translate(432.000000, 96.000000)" fill="#000000" fill-rule="nonzero" id="Rectangle">
                    <g>
                        <rect x="0" y="0" width="48" height="48"></rect>
                    </g>
                </g>
                <g transform="translate(480.000000, 96.000000)" fill="#000000" fill-rule="nonzero" id="Rectangle">
                    <g>
                        <rect x="0" y="0" width="48" height="48"></rect>
                    </g>
                </g>
                <g transform="translate(576.000000, 96.000000)" fill="#000000" fill-rule="nonzero" id="Rectangle">
                    <g>
                        <rect x="0" y="0" width="48" height="48"></rect>
                    </g>
                </g>
                <g transform="translate(384.000000, 144.000000)" fill="#000000" fill-rule="nonzero" id="Rectangle">
                    <g>
                        <rect x="0" y="0" width="48" height="48"></rect>
                    </g>
                </g>
                <g transform="translate(432.000000, 144.000000)" fill="#000000" fill-rule="nonzero" id="Rectangle">
                    <g>
                        <rect x="0" y="0" width="48" height="48"></rect>
                    </g>
                </g>
                <g transform="translate(480.000000, 144.000000)" fill="#000000" fill-rule="nonzero" id="Rectangle">
                    <g>
                        <rect x="0" y="0" width="48" height="48"></rect>
                    </g>
                </g>
                <g transform="translate(528.000000, 144.000000)" fill="#000000" fill-rule="nonzero" id="Rectangle">
                    <g>
                        <rect x="0" y="0" width="48" height="48"></rect>
                    </g>
                </g>
                <g transform="translate(576.000000, 144.000000)" fill="#000000" fill-rule="nonzero" id="Rectangle">
                    <g>
                        <rect x="0" y="0" width="48" height="48"></rect>
                    </g>
                </g>
                <g transform="translate(480.000000, 192.000000)" fill="#000000" fill-rule="nonzero" id="Rectangle">
                    <g>
                        <rect x="0" y="0" width="48" height="48"></rect>
                    </g>
                </g>
                <g transform="translate(528.000000, 192.000000)" fill="#000000" fill-rule="nonzero" id="Rectangle">
                    <g>
                        <rect x="0" y="0" width="48" height="48"></rect>
                    </g>
                </g>
                <g transform="translate(432.000000, 240.000000)" fill="#000000" fill-rule="nonzero" id="Rectangle">
                    <g>
                        <rect x="0" y="0" width="48" height="48"></rect>
                    </g>
                </g>
                <g transform="translate(384.000000, 288.000000)" fill="#000000" fill-rule="nonzero" id="Rectangle">
                    <g>
                        <rect x="0" y="0" width="48" height="48"></rect>
                    </g>
                </g>
                <g transform="translate(480.000000, 288.000000)" fill="#000000" fill-rule="nonzero" id="Rectangle">
                    <g>
                        <rect x="0" y="0" width="48" height="48"></rect>
                    </g>
                </g>
                <g transform="translate(576.000000, 288.000000)" fill="#000000" fill-rule="nonzero" id="Rectangle">
                    <g>
                        <rect x="0" y="0" width="48" height="48"></rect>
                    </g>
                </g>
                <g transform="translate(384.000000, 336.000000)" fill="#000000" fill-rule="nonzero" id="Rectangle">
                    <g>
                        <rect x="0" y="0" width="48" height="48"></rect>
                    </g>
                </g>
                <g transform="translate(480.000000, 336.000000)" fill="#000000" fill-rule="nonzero" id="Rectangle">
                    <g>
                        <rect x="0" y="0" width="48" height="48"></rect>
                    </g>
                </g>
                <g transform="translate(528.000000, 336.000000)" fill="#000000" fill-rule="nonzero" id="Rectangle">
                    <g>
                        <rect x="0" y="0" width="48" height="48"></rect>
                    </g>
                </g>
                <g transform="translate(576.000000, 336.000000)" fill="#000000" fill-rule="nonzero" id="Rectangle">
                    <g>
                        <rect x="0" y="0" width="48" height="48"></rect>
                    </g>
                </g>
                <g transform="translate(0.000000, 384.000000)" fill="#000000" fill-rule="nonzero" id="Rectangle">
                    <g>
                        <rect x="0" y="0" width="48" height="48"></rect>
                    </g>
                </g>
                <g transform="translate(96.000000, 384.000000)" fill="#000000" fill-rule="nonzero" id="Rectangle">
                    <g>
                        <rect x="0" y="0" width="48" height="48"></rect>
                    </g>
                </g>
                <g transform="translate(144.000000, 384.000000)" fill="#000000" fill-rule="nonzero" id="Rectangle">
                    <g>
                        <rect x="0" y="0" width="48" height="48"></rect>
                    </g>
                </g>
                <g transform="translate(240.000000, 384.000000)" fill="#000000" fill-rule="nonzero" id="Rectangle">
                    <g>
                        <rect x="0" y="0" width="48" height="48"></rect>
                    </g>
                </g>
                <g transform="translate(288.000000, 384.000000)" fill="#000000" fill-rule="nonzero" id="Rectangle">
                    <g>
                        <rect x="0" y="0" width="48" height="48"></rect>
                    </g>
                </g>
                <g transform="translate(336.000000, 384.000000)" fill="#000000" fill-rule="nonzero" id="Rectangle">
                    <g>
                        <rect x="0" y="0" width="48" height="48"></rect>
                    </g>
                </g>
                <g transform="translate(528.000000, 384.000000)" fill="#000000" fill-rule="nonzero" id="Rectangle">
                    <g>
                        <rect x="0" y="0" width="48" height="48"></rect>
                    </g>
                </g>
                <g transform="translate(576.000000, 384.000000)" fill="#000000" fill-rule="nonzero" id="Rectangle">
                    <g>
                        <rect x="0" y="0" width="48" height="48"></rect>
                    </g>
                </g>
                <g transform="translate(672.000000, 384.000000)" fill="#000000" fill-rule="nonzero" id="Rectangle">
                    <g>
                        <rect x="0" y="0" width="48" height="48"></rect>
                    </g>
                </g>
                <g transform="translate(816.000000, 384.000000)" fill="#000000" fill-rule="nonzero" id="Rectangle">
                    <g>
                        <rect x="0" y="0" width="48" height="48"></rect>
                    </g>
                </g>
                <g transform="translate(912.000000, 384.000000)" fill="#000000" fill-rule="nonzero" id="Rectangle">
                    <g>
                        <rect x="0" y="0" width="48" height="48"></rect>
                    </g>
                </g>
                <g transform="translate(960.000000, 384.000000)" fill="#000000" fill-rule="nonzero" id="Rectangle">
                    <g>
                        <rect x="0" y="0" width="48" height="48"></rect>
                    </g>
                </g>
                <g transform="translate(240.000000, 432.000000)" fill="#000000" fill-rule="nonzero" id="Rectangle">
                    <g>
                        <rect x="0" y="0" width="48" height="48"></rect>
                    </g>
                </g>
                <g transform="translate(336.000000, 432.000000)" fill="#000000" fill-rule="nonzero" id="Rectangle">
                    <g>
                        <rect x="0" y="0" width="48" height="48"></rect>
                    </g>
                </g>
                <g transform="translate(384.000000, 432.000000)" fill="#000000" fill-rule="nonzero" id="Rectangle">
                    <g>
                        <rect x="0" y="0" width="48" height="48"></rect>
                    </g>
                </g>
                <g transform="translate(624.000000, 432.000000)" fill="#000000" fill-rule="nonzero" id="Rectangle">
                    <g>
                        <rect x="0" y="0" width="48" height="48"></rect>
                    </g>
                </g>
                <g transform="translate(768.000000, 432.000000)" fill="#000000" fill-rule="nonzero" id="Rectangle">
                    <g>
                        <rect x="0" y="0" width="48" height="48"></rect>
                    </g>
                </g>
                <g transform="translate(816.000000, 432.000000)" fill="#000000" fill-rule="nonzero" id="Rectangle">
                    <g>
                        <rect x="0" y="0" width="48" height="48"></rect>
                    </g>
                </g>
                <g transform="translate(960.000000, 432.000000)" fill="#000000" fill-rule="nonzero" id="Rectangle">
                    <g>
                        <rect x="0" y="0" width="48" height="48"></rect>
                    </g>
                </g>
                <g transform="translate(0.000000, 480.000000)" fill="#000000" fill-rule="nonzero" id="Rectangle">
                    <g>
                        <rect x="0" y="0" width="48" height="48"></rect>
                    </g>
                </g>
                <g transform="translate(96.000000, 480.000000)" fill="#000000" fill-rule="nonzero" id="Rectangle">
                    <g>
                        <rect x="0" y="0" width="48" height="48"></rect>
                    </g>
                </g>
                <g transform="translate(240.000000, 480.000000)" fill="#000000" fill-rule="nonzero" id="Rectangle">
                    <g>
                        <rect x="0" y="0" width="48" height="48"></rect>
                    </g>
                </g>
                <g transform="translate(288.000000, 480.000000)" fill="#000000" fill-rule="nonzero" id="Rectangle">
                    <g>
                        <rect x="0" y="0" width="48" height="48"></rect>
                    </g>
                </g>
                <g transform="translate(336.000000, 480.000000)" fill="#000000" fill-rule="nonzero" id="Rectangle">
                    <g>
                        <rect x="0" y="0" width="48" height="48"></rect>
                    </g>
                </g>
                <g transform="translate(384.000000, 480.000000)" fill="#000000" fill-rule="nonzero" id="Rectangle">
                    <g>
                        <rect x="0" y="0" width="48" height="48"></rect>
                    </g>
                </g>
                <g transform="translate(432.000000, 480.000000)" fill="#000000" fill-rule="nonzero" id="Rectangle">
                    <g>
                        <rect x="0" y="0" width="48" height="48"></rect>
                    </g>
                </g>
                <g transform="translate(480.000000, 480.000000)" fill="#000000" fill-rule="nonzero" id="Rectangle">
                    <g>
                        <rect x="0" y="0" width="48" height="48"></rect>
                    </g>
                </g>
                <g transform="translate(528.000000, 480.000000)" fill="#000000" fill-rule="nonzero" id="Rectangle">
                    <g>
                        <rect x="0" y="0" width="48" height="48"></rect>
                    </g>
                </g>
                <g transform="translate(624.000000, 480.000000)" fill="#000000" fill-rule="nonzero" id="Rectangle">
                    <g>
                        <rect x="0" y="0" width="48" height="48"></rect>
                    </g>
                </g>
                <g transform="translate(720.000000, 480.000000)" fill="#000000" fill-rule="nonzero" id="Rectangle">
                    <g>
                        <rect x="0" y="0" width="48" height="48"></rect>
                    </g>
                </g>
                <g transform="translate(816.000000, 480.000000)" fill="#000000" fill-rule="nonzero" id="Rectangle">
                    <g>
                        <rect x="0" y="0" width="48" height="48"></rect>
                    </g>
                </g>
                <g transform="translate(912.000000, 480.000000)" fill="#000000" fill-rule="nonzero" id="Rectangle">
                    <g>
                        <rect x="0" y="0" width="48" height="48"></rect>
                    </g>
                </g>
                <g transform="translate(960.000000, 480.000000)" fill="#000000" fill-rule="nonzero" id="Rectangle">
                    <g>
                        <rect x="0" y="0" width="48" height="48"></rect>
                    </g>
                </g>
                <g transform="translate(192.000000, 528.000000)" fill="#000000" fill-rule="nonzero" id="Rectangle">
                    <g>
                        <rect x="0" y="0" width="48" height="48"></rect>
                    </g>
                </g>
                <g transform="translate(384.000000, 528.000000)" fill="#000000" fill-rule="nonzero" id="Rectangle">
                    <g>
                        <rect x="0" y="0" width="48" height="48"></rect>
                    </g>
                </g>
                <g transform="translate(576.000000, 528.000000)" fill="#000000" fill-rule="nonzero" id="Rectangle">
                    <g>
                        <rect x="0" y="0" width="48" height="48"></rect>
                    </g>
                </g>
                <g transform="translate(768.000000, 528.000000)" fill="#000000" fill-rule="nonzero" id="Rectangle">
                    <g>
                        <rect x="0" y="0" width="48" height="48"></rect>
                    </g>
                </g>
                <g transform="translate(816.000000, 528.000000)" fill="#000000" fill-rule="nonzero" id="Rectangle">
                    <g>
                        <rect x="0" y="0" width="48" height="48"></rect>
                    </g>
                </g>
                <g transform="translate(912.000000, 528.000000)" fill="#000000" fill-rule="nonzero" id="Rectangle">
                    <g>
                        <rect x="0" y="0" width="48" height="48"></rect>
                    </g>
                </g>
                <g transform="translate(0.000000, 576.000000)" fill="#000000" fill-rule="nonzero" id="Rectangle">
                    <g>
                        <rect x="0" y="0" width="48" height="48"></rect>
                    </g>
                </g>
                <g transform="translate(96.000000, 576.000000)" fill="#000000" fill-rule="nonzero" id="Rectangle">
                    <g>
                        <rect x="0" y="0" width="48" height="48"></rect>
                    </g>
                </g>
                <g transform="translate(192.000000, 576.000000)" fill="#000000" fill-rule="nonzero" id="Rectangle">
                    <g>
                        <rect x="0" y="0" width="48" height="48"></rect>
                    </g>
                </g>
                <g transform="translate(288.000000, 576.000000)" fill="#000000" fill-rule="nonzero" id="Rectangle">
                    <g>
                        <rect x="0" y="0" width="48" height="48"></rect>
                    </g>
                </g>
                <g transform="translate(336.000000, 576.000000)" fill="#000000" fill-rule="nonzero" id="Rectangle">
                    <g>
                        <rect x="0" y="0" width="48" height="48"></rect>
                    </g>
                </g>
                <g transform="translate(480.000000, 576.000000)" fill="#000000" fill-rule="nonzero" id="Rectangle">
                    <g>
                        <rect x="0" y="0" width="48" height="48"></rect>
                    </g>
                </g>
                <g transform="translate(528.000000, 576.000000)" fill="#000000" fill-rule="nonzero" id="Rectangle">
                    <g>
                        <rect x="0" y="0" width="48" height="48"></rect>
                    </g>
                </g>
                <g transform="translate(672.000000, 576.000000)" fill="#000000" fill-rule="nonzero" id="Rectangle">
                    <g>
                        <rect x="0" y="0" width="48" height="48"></rect>
                    </g>
                </g>
                <g transform="translate(720.000000, 576.000000)" fill="#000000" fill-rule="nonzero" id="Rectangle">
                    <g>
                        <rect x="0" y="0" width="48" height="48"></rect>
                    </g>
                </g>
                <g transform="translate(384.000000, 624.000000)" fill="#000000" fill-rule="nonzero" id="Rectangle">
                    <g>
                        <rect x="0" y="0" width="48" height="48"></rect>
                    </g>
                </g>
                <g transform="translate(432.000000, 624.000000)" fill="#000000" fill-rule="nonzero" id="Rectangle">
                    <g>
                        <rect x="0" y="0" width="48" height="48"></rect>
                    </g>
                </g>
                <g transform="translate(480.000000, 624.000000)" fill="#000000" fill-rule="nonzero" id="Rectangle">
                    <g>
                        <rect x="0" y="0" width="48" height="48"></rect>
                    </g>
                </g>
                <g transform="translate(528.000000, 624.000000)" fill="#000000" fill-rule="nonzero" id="Rectangle">
                    <g>
                        <rect x="0" y="0" width="48" height="48"></rect>
                    </g>
                </g>
                <g transform="translate(576.000000, 624.000000)" fill="#000000" fill-rule="nonzero" id="Rectangle">
                    <g>
                        <rect x="0" y="0" width="48" height="48"></rect>
                    </g>
                </g>
                <g transform="translate(672.000000, 624.000000)" fill="#000000" fill-rule="nonzero" id="Rectangle">
                    <g>
                        <rect x="0" y="0" width="48" height="48"></rect>
                    </g>
                </g>
                <g transform="translate(768.000000, 624.000000)" fill="#000000" fill-rule="nonzero" id="Rectangle">
                    <g>
                        <rect x="0" y="0" width="48" height="48"></rect>
                    </g>
                </g>
                <g transform="translate(912.000000, 624.000000)" fill="#000000" fill-rule="nonzero" id="Rectangle">
                    <g>
                        <rect x="0" y="0" width="48" height="48"></rect>
                    </g>
                </g>
                <g transform="translate(960.000000, 624.000000)" fill="#000000" fill-rule="nonzero" id="Rectangle">
                    <g>
                        <rect x="0" y="0" width="48" height="48"></rect>
                    </g>
                </g>
                <g transform="translate(384.000000, 672.000000)" fill="#000000" fill-rule="nonzero" id="Rectangle">
                    <g>
                        <rect x="0" y="0" width="48" height="48"></rect>
                    </g>
                </g>
                <g transform="translate(768.000000, 672.000000)" fill="#000000" fill-rule="nonzero" id="Rectangle">
                    <g>
                        <rect x="0" y="0" width="48" height="48"></rect>
                    </g>
                </g>
                <g transform="translate(816.000000, 672.000000)" fill="#000000" fill-rule="nonzero" id="Rectangle">
                    <g>
                        <rect x="0" y="0" width="48" height="48"></rect>
                    </g>
                </g>
                <g transform="translate(384.000000, 720.000000)" fill="#000000" fill-rule="nonzero" id="Rectangle">
                    <g>
                        <rect x="0" y="0" width="48" height="48"></rect>
                    </g>
                </g>
                <g transform="translate(432.000000, 720.000000)" fill="#000000" fill-rule="nonzero" id="Rectangle">
                    <g>
                        <rect x="0" y="0" width="48" height="48"></rect>
                    </g>
                </g>
                <g transform="translate(480.000000, 720.000000)" fill="#000000" fill-rule="nonzero" id="Rectangle">
                    <g>
                        <rect x="0" y="0" width="48" height="48"></rect>
                    </g>
                </g>
                <g transform="translate(624.000000, 720.000000)" fill="#000000" fill-rule="nonzero" id="Rectangle">
                    <g>
                        <rect x="0" y="0" width="48" height="48"></rect>
                    </g>
                </g>
                <g transform="translate(816.000000, 720.000000)" fill="#000000" fill-rule="nonzero" id="Rectangle">
                    <g>
                        <rect x="0" y="0" width="48" height="48"></rect>
                    </g>
                </g>
                <g transform="translate(864.000000, 720.000000)" fill="#000000" fill-rule="nonzero" id="Rectangle">
                    <g>
                        <rect x="0" y="0" width="48" height="48"></rect>
                    </g>
                </g>
                <g transform="translate(960.000000, 720.000000)" fill="#000000" fill-rule="nonzero" id="Rectangle">
                    <g>
                        <rect x="0" y="0" width="48" height="48"></rect>
                    </g>
                </g>
                <g transform="translate(432.000000, 768.000000)" fill="#000000" fill-rule="nonzero" id="Rectangle">
                    <g>
                        <rect x="0" y="0" width="48" height="48"></rect>
                    </g>
                </g>
                <g transform="translate(576.000000, 768.000000)" fill="#000000" fill-rule="nonzero" id="Rectangle">
                    <g>
                        <rect x="0" y="0" width="48" height="48"></rect>
                    </g>
                </g>
                <g transform="translate(720.000000, 768.000000)" fill="#000000" fill-rule="nonzero" id="Rectangle">
                    <g>
                        <rect x="0" y="0" width="48" height="48"></rect>
                    </g>
                </g>
                <g transform="translate(816.000000, 768.000000)" fill="#000000" fill-rule="nonzero" id="Rectangle">
                    <g>
                        <rect x="0" y="0" width="48" height="48"></rect>
                    </g>
                </g>
                <g transform="translate(864.000000, 768.000000)" fill="#000000" fill-rule="nonzero" id="Rectangle">
                    <g>
                        <rect x="0" y="0" width="48" height="48"></rect>
                    </g>
                </g>
                <g transform="translate(912.000000, 768.000000)" fill="#000000" fill-rule="nonzero" id="Rectangle">
                    <g>
                        <rect x="0" y="0" width="48" height="48"></rect>
                    </g>
                </g>
                <g transform="translate(384.000000, 816.000000)" fill="#000000" fill-rule="nonzero" id="Rectangle">
                    <g>
                        <rect x="0" y="0" width="48" height="48"></rect>
                    </g>
                </g>
                <g transform="translate(432.000000, 816.000000)" fill="#000000" fill-rule="nonzero" id="Rectangle">
                    <g>
                        <rect x="0" y="0" width="48" height="48"></rect>
                    </g>
                </g>
                <g transform="translate(576.000000, 816.000000)" fill="#000000" fill-rule="nonzero" id="Rectangle">
                    <g>
                        <rect x="0" y="0" width="48" height="48"></rect>
                    </g>
                </g>
                <g transform="translate(624.000000, 816.000000)" fill="#000000" fill-rule="nonzero" id="Rectangle">
                    <g>
                        <rect x="0" y="0" width="48" height="48"></rect>
                    </g>
                </g>
                <g transform="translate(672.000000, 816.000000)" fill="#000000" fill-rule="nonzero" id="Rectangle">
                    <g>
                        <rect x="0" y="0" width="48" height="48"></rect>
                    </g>
                </g>
                <g transform="translate(912.000000, 816.000000)" fill="#000000" fill-rule="nonzero" id="Rectangle">
                    <g>
                        <rect x="0" y="0" width="48" height="48"></rect>
                    </g>
                </g>
                <g transform="translate(384.000000, 864.000000)" fill="#000000" fill-rule="nonzero" id="Rectangle">
                    <g>
                        <rect x="0" y="0" width="48" height="48"></rect>
                    </g>
                </g>
                <g transform="translate(576.000000, 864.000000)" fill="#000000" fill-rule="nonzero" id="Rectangle">
                    <g>
                        <rect x="0" y="0" width="48" height="48"></rect>
                    </g>
                </g>
                <g transform="translate(624.000000, 864.000000)" fill="#000000" fill-rule="nonzero" id="Rectangle">
                    <g>
                        <rect x="0" y="0" width="48" height="48"></rect>
                    </g>
                </g>
                <g transform="translate(816.000000, 864.000000)" fill="#000000" fill-rule="nonzero" id="Rectangle">
                    <g>
                        <rect x="0" y="0" width="48" height="48"></rect>
                    </g>
                </g>
                <g transform="translate(864.000000, 864.000000)" fill="#000000" fill-rule="nonzero" id="Rectangle">
                    <g>
                        <rect x="0" y="0" width="48" height="48"></rect>
                    </g>
                </g>
                <g transform="translate(432.000000, 912.000000)" fill="#000000" fill-rule="nonzero" id="Rectangle">
                    <g>
                        <rect x="0" y="0" width="48" height="48"></rect>
                    </g>
                </g>
                <g transform="translate(528.000000, 912.000000)" fill="#000000" fill-rule="nonzero" id="Rectangle">
                    <g>
                        <rect x="0" y="0" width="48" height="48"></rect>
                    </g>
                </g>
                <g transform="translate(624.000000, 912.000000)" fill="#000000" fill-rule="nonzero" id="Rectangle">
                    <g>
                        <rect x="0" y="0" width="48" height="48"></rect>
                    </g>
                </g>
                <g transform="translate(672.000000, 912.000000)" fill="#000000" fill-rule="nonzero" id="Rectangle">
                    <g>
                        <rect x="0" y="0" width="48" height="48"></rect>
                    </g>
                </g>
                <g transform="translate(720.000000, 912.000000)" fill="#000000" fill-rule="nonzero" id="Rectangle">
                    <g>
                        <rect x="0" y="0" width="48" height="48"></rect>
                    </g>
                </g>
                <g transform="translate(768.000000, 912.000000)" fill="#000000" fill-rule="nonzero" id="Rectangle">
                    <g>
                        <rect x="0" y="0" width="48" height="48"></rect>
                    </g>
                </g>
                <g transform="translate(960.000000, 912.000000)" fill="#000000" fill-rule="nonzero" id="Rectangle">
                    <g>
                        <rect x="0" y="0" width="48" height="48"></rect>
                    </g>
                </g>
                <g transform="translate(384.000000, 960.000000)" fill="#000000" fill-rule="nonzero" id="Rectangle">
                    <g>
                        <rect x="0" y="0" width="48" height="48"></rect>
                    </g>
                </g>
                <g transform="translate(432.000000, 960.000000)" fill="#000000" fill-rule="nonzero" id="Rectangle">
                    <g>
                        <rect x="0" y="0" width="48" height="48"></rect>
                    </g>
                </g>
                <g transform="translate(480.000000, 960.000000)" fill="#000000" fill-rule="nonzero" id="Rectangle">
                    <g>
                        <rect x="0" y="0" width="48" height="48"></rect>
                    </g>
                </g>
                <g transform="translate(528.000000, 960.000000)" fill="#000000" fill-rule="nonzero" id="Rectangle">
                    <g>
                        <rect x="0" y="0" width="48" height="48"></rect>
                    </g>
                </g>
                <g transform="translate(672.000000, 960.000000)" fill="#000000" fill-rule="nonzero" id="Rectangle">
                    <g>
                        <rect x="0" y="0" width="48" height="48"></rect>
                    </g>
                </g>
                <g transform="translate(768.000000, 960.000000)" fill="#000000" fill-rule="nonzero" id="Rectangle">
                    <g>
                        <rect x="0" y="0" width="48" height="48"></rect>
                    </g>
                </g>
                <g transform="translate(816.000000, 960.000000)" fill="#000000" fill-rule="nonzero" id="Rectangle">
                    <g>
                        <rect x="0" y="0" width="48" height="48"></rect>
                    </g>
                </g>
                <g transform="translate(864.000000, 960.000000)" fill="#000000" fill-rule="nonzero" id="Rectangle">
                    <g>
                        <rect x="0" y="0" width="48" height="48"></rect>
                    </g>
                </g>
                <g>
                    <g>
                        <g>
                            <rect id="Rectangle" x="50.4" y="50.4" width="235.2" height="235.2"></rect>
                            <path d="M285.6,0 L50.4,0 L0,0 L0,50.4 L0,285.6 L0,336 L50.4,336 L285.6,336 L336,336 L336,285.6 L336,50.4 L336,0 L285.6,0 Z M285.6,285.6 L50.4,285.6 L50.4,50.4 L285.6,50.4 L285.6,285.6 Z" id="Shape" fill="#000000" fill-rule="nonzero"></path>
                        </g>
                    </g>
                </g>
                <g transform="translate(672.000000, 0.000000)">
                    <g>
                        <g>
                            <rect id="Rectangle" x="50.4" y="50.4" width="235.2" height="235.2"></rect>
                            <path d="M285.6,0 L50.4,0 L0,0 L0,50.4 L0,285.6 L0,336 L50.4,336 L285.6,336 L336,336 L336,285.6 L336,50.4 L336,0 L285.6,0 Z M285.6,285.6 L50.4,285.6 L50.4,50.4 L285.6,50.4 L285.6,285.6 Z" id="Shape" fill="#000000" fill-rule="nonzero"></path>
                        </g>
                    </g>
                </g>
                <g transform="translate(0.000000, 672.000000)">
                    <g>
                        <g>
                            <rect id="Rectangle" x="50.4" y="50.4" width="235.2" height="235.2"></rect>
                            <path d="M285.6,0 L50.4,0 L0,0 L0,50.4 L0,285.6 L0,336 L50.4,336 L285.6,336 L336,336 L336,285.6 L336,50.4 L336,0 L285.6,0 Z M285.6,285.6 L50.4,285.6 L50.4,50.4 L285.6,50.4 L285.6,285.6 Z" id="Shape" fill="#000000" fill-rule="nonzero"></path>
                        </g>
                    </g>
                </g>
                <g transform="translate(96.000000, 96.000000)" fill="#000000" fill-rule="nonzero" id="Rectangle">
                    <g>
                        <rect x="0" y="0" width="144" height="144"></rect>
                    </g>
                </g>
                <g transform="translate(768.000000, 96.000000)" fill="#000000" fill-rule="nonzero" id="Rectangle">
                    <g>
                        <rect x="0" y="0" width="144" height="144"></rect>
                    </g>
                </g>
                <g transform="translate(96.000000, 768.000000)" fill="#000000" fill-rule="nonzero" id="Rectangle">
                    <g>
                        <rect x="0" y="0" width="144" height="144"></rect>
                    </g>
                </g>
            </g>
        </g>
        <rect id="Rectangle" stroke="#979797" fill="#999999" opacity="0.856143043" x="49.5" y="456.5" width="1107" height="335" rx="8"></rect>
        <text id="Please-wait" font-family="Lato-Bold, Lato" font-size="165" font-weight="bold" fill="#FFFFFF">
            <tspan x="180" y="688">Please wait</tspan>
        </text>
    </g>
</svg>